<svg xmlns="http://www.w3.org/2000/svg" width="55.531" height="60.657" viewBox="0 0 55.531 60.657">
  <path id="brokerage-icon" d="M7.137,47.553a1.2,1.2,0,1,1-.01,0ZM12.976,8.884A6.085,6.085,0,1,1,6.915,14.96a6.085,6.085,0,0,1,6.061-6.075ZM28.769,25.605h.494a.824.824,0,0,0,.849-.829V23.439a.824.824,0,0,0-.824-.824H26.326a.824.824,0,0,0-.824.824v1.337a.824.824,0,0,0,.824.824h.494l-.242,2.152.39-.163c.355-.133.76-.257,1.209-.375.262-.064.518-.123.775-.173L28.794,25.6ZM10.918,30.541c.089-3.02.395-5.167,3.455-6.317a41.7,41.7,0,0,0,6.692-2.961l2.394,8.657-.049.054-.439.523a5.358,5.358,0,0,0-.8.039,11.243,11.243,0,0,0-2.433.494,12.491,12.491,0,0,0-2.172.913q-.533.281-1.036.592H14.95a5.794,5.794,0,0,0-.908-.79c-.074-.059-.153-.114-.232-.168a6.673,6.673,0,0,0-2.191-.888q-.336-.074-.7-.118ZM23.562,18.35c.094-.77-2.186-3.706-2.6-5.113a5.109,5.109,0,0,1-.227-5.177c.39-.592.222-1.115.222-1.935,0-8.163,14.313-8.168,14.313,0,0,1.031-.237,1.278.326,2.088.938,1.357.449,3.766-.336,5.024-.494,1.481-2.9,4.274-2.734,5.113.143,4.19-8.968,4.052-8.943,0Zm11.1,2.468a30.336,30.336,0,0,0,6.243,2.714c3.016.987,3.7,3.519,3.845,7.171a7.626,7.626,0,0,0-1.609.306c-.183.059-.355.118-.528.188l-.276-.183c-.568-.38-.77-.523-.987-.671h0c-.8-.563-1.624-1.14-2.468-1.619a13.266,13.266,0,0,0-3.016-1.308s-.118-.044-.123-.035l-.109-.03a16.085,16.085,0,0,0-1.871-.37q-.375-.049-.785-.089l1.678-6.066ZM42.593,8.884a6.085,6.085,0,1,1-6.066,6.075,6.085,6.085,0,0,1,6.066-6.075Zm-.637,8.647a1.4,1.4,0,0,1-.178-.025l-.316-.044-.192-.03-.188-.039-.178-.044h-.074V16.12l.341.03H42.79a.494.494,0,0,0,.1-.039.123.123,0,0,0,.064-.044.089.089,0,0,0,.035-.049.192.192,0,0,0,0-.079v-.079a.158.158,0,0,0-.059-.138.188.188,0,0,0-.084-.039.326.326,0,0,0-.1,0H42.4a2.591,2.591,0,0,1-.711-.089,1.481,1.481,0,0,1-.508-.291,1.076,1.076,0,0,1-.326-.494,2.078,2.078,0,0,1-.109-.716v-.222a1.8,1.8,0,0,1,.118-.676,1.234,1.234,0,0,1,.355-.494,1.757,1.757,0,0,1,.355-.232,1.308,1.308,0,0,1,.385-.128v-.523h1.115v.494a4.506,4.506,0,0,1,.494.074h.094l.232.044.212.044h.074v1.214h-1.8a.321.321,0,0,0-.1.03.247.247,0,0,0-.069.049.119.119,0,0,0-.035.059.326.326,0,0,0,0,.1v.064a.34.34,0,0,0,0,.109.187.187,0,0,0,.054.069.227.227,0,0,0,.1.044.523.523,0,0,0,.163,0h.454a1.841,1.841,0,0,1,.449.049,1.293,1.293,0,0,1,.38.143,1.244,1.244,0,0,1,.494.494,1.372,1.372,0,0,1,.123.345,1.688,1.688,0,0,1,.044.39v.217a2.581,2.581,0,0,1-.059.582,1.323,1.323,0,0,1-.178.439,1.15,1.15,0,0,1-.291.306,1.3,1.3,0,0,1-.39.188h-.039a2.29,2.29,0,0,1-.41.089v.577h-1.11Zm.637-7.586a5.009,5.009,0,1,1-3.547,1.467,5.014,5.014,0,0,1,3.547-1.467ZM12.344,17.531a1.4,1.4,0,0,1-.178-.025l-.316-.044-.2-.03-.188-.039-.178-.044h-.074V16.12l.341.03h1.624l.109-.039a.188.188,0,0,0,.064-.044.084.084,0,0,0,.03-.049.187.187,0,0,0,0-.079v-.079a.153.153,0,0,0-.064-.138.188.188,0,0,0-.084-.039.316.316,0,0,0-.1,0h-.355a2.532,2.532,0,0,1-.706-.089,1.416,1.416,0,0,1-.508-.291,1.12,1.12,0,0,1-.331-.494,2.206,2.206,0,0,1-.109-.716v-.222a1.8,1.8,0,0,1,.118-.676,1.244,1.244,0,0,1,.36-.494,1.52,1.52,0,0,1,.355-.232,1.323,1.323,0,0,1,.385-.128v-.523h1.115v.494a4.2,4.2,0,0,1,.494.074h.094l.237.044.207.044h.074v1.214h-1.8a.321.321,0,0,0-.1.03.35.35,0,0,0-.069.049.173.173,0,0,0-.035.059.326.326,0,0,0,0,.1v.064a.237.237,0,0,0,0,.109.138.138,0,0,0,.049.069.262.262,0,0,0,.1.044.538.538,0,0,0,.168,0h.454a1.871,1.871,0,0,1,.449.049,1.313,1.313,0,0,1,.375.143,1.244,1.244,0,0,1,.494.494,1.382,1.382,0,0,1,.128.345,2.008,2.008,0,0,1,.039.39v.217a2.922,2.922,0,0,1-.054.582,1.229,1.229,0,0,1-.183.439,1.15,1.15,0,0,1-.291.306,1.244,1.244,0,0,1-.39.188h-.035a2.468,2.468,0,0,1-.415.089v.577H12.344Zm.637-7.586A5.014,5.014,0,1,1,7.961,14.96a5.014,5.014,0,0,1,5.019-5.014ZM42.1,37.09a3.889,3.889,0,0,1,.039-.647l-2.364-1.579c-.336-.227-.711-.494-1.081-.75a14.106,14.106,0,0,0-4.22-2.3,11.352,11.352,0,0,0-2.685-.37,9.224,9.224,0,0,0-2.468.267,6.416,6.416,0,0,0-1.357.518,4.842,4.842,0,0,0-1.046.74l-1.584,1.885a.721.721,0,0,1-.2.237l-4.4,5.182a1.88,1.88,0,0,0,.375.834,1.831,1.831,0,0,0,.809.573,2.67,2.67,0,0,0,1.14.143,3.79,3.79,0,0,0,1.974-.829l1.214-.987c.306-.252.563-.494.819-.716a11.055,11.055,0,0,1,1.708-1.377c1.362-.814,2.719-.839,4.062,1.412l6.875,12.4H42.05V37.07Zm.553-1.974a2.389,2.389,0,0,1,.365-.41,3.716,3.716,0,0,1,2.561-.8h5.977a4.8,4.8,0,0,1,2.961.765A2.878,2.878,0,0,1,55.5,37.51L54.181,51.171A4.768,4.768,0,0,1,53.194,54a3.045,3.045,0,0,1-2.576.987h-5.36a2.729,2.729,0,0,1-1.925-.592,3.583,3.583,0,0,1-.987-1.268H40.5a3.193,3.193,0,0,1,.035,2.043,3.317,3.317,0,0,1-1.115,1.579,3.785,3.785,0,0,1-1.752.775,3.455,3.455,0,0,1-1.88-.207,4.866,4.866,0,0,1-2.221,1.412,3.884,3.884,0,0,1-2.364-.109,4.758,4.758,0,0,1-2.517,1.565,4.615,4.615,0,0,1-2.991-.434,4.442,4.442,0,0,1-1.036.607,3.864,3.864,0,0,1-1.6.3,4.358,4.358,0,0,1-2.961-1.081,8.884,8.884,0,0,1-1.668-2.325l-2.961-5.167h-2.3a3.983,3.983,0,0,1-.681,1.639l-.03.044A3.04,3.04,0,0,1,9.817,54.9H4.8a2.547,2.547,0,0,1-2.512-.854,6.216,6.216,0,0,1-1.165-3.42v-.059L.09,37.732A3.633,3.633,0,0,1,.667,34.7,3.243,3.243,0,0,1,3.135,33.67H9.551a4.545,4.545,0,0,1,2.517.577h0a2.556,2.556,0,0,1,1.1,1.481h4.314A12.235,12.235,0,0,1,20.7,34.055a8.652,8.652,0,0,1,3.7-.3L25.887,32l.059-.059a6.016,6.016,0,0,1,1.367-.987,7.511,7.511,0,0,1,1.663-.632,10.567,10.567,0,0,1,2.838-.311,12.931,12.931,0,0,1,3.016.415h0a14.711,14.711,0,0,1,4.659,2.507c.345.242.691.494,1.061.73l2.1,1.4ZM11.9,36.646a.637.637,0,0,1-.03-.2v-.054a1.318,1.318,0,0,0-.568-.948,3.233,3.233,0,0,0-1.757-.35H3.169a1.92,1.92,0,0,0-1.441.528A2.5,2.5,0,0,0,1.466,37.6v.064L2.5,50.529a4.977,4.977,0,0,0,.834,2.655,1.278,1.278,0,0,0,1.288.385.524.524,0,0,1,.123,0H9.876a1.737,1.737,0,0,0,1.481-.592l.025-.03a3.731,3.731,0,0,0,.533-2.088V36.616Zm1.4,14.081h2.566a.7.7,0,0,1,.622.38L19.639,56.6a8,8,0,0,0,1.382,1.974,3.025,3.025,0,0,0,2.073.721,2.4,2.4,0,0,0,1.036-.188,2.962,2.962,0,0,0,.592-.336l-2.048-3.84a.7.7,0,1,1,1.229-.656l2.231,4.175a3.011,3.011,0,0,0,4.008-.7l-3.213-5.088a.7.7,0,1,1,1.175-.75l3.386,5.34A2.621,2.621,0,0,0,33.2,57.4a3.529,3.529,0,0,0,1.56-1.012l-3.07-5.8a.7.7,0,1,1,1.234-.656L36.1,55.909a2.009,2.009,0,0,0,1.347.227,2.389,2.389,0,0,0,1.106-.494,1.925,1.925,0,0,0,.656-.918,1.866,1.866,0,0,0-.1-1.357.671.671,0,0,1-.054-.321.706.706,0,0,1-.4-.464L31.681,40.017c-.775-1.3-1.481-1.328-2.147-.928A10,10,0,0,0,28.053,40.3c-.306.276-.612.558-.869.765l-1.234,1.022a5.157,5.157,0,0,1-2.749,1.13,4.018,4.018,0,0,1-1.742-.232A3.257,3.257,0,0,1,20.053,42a3.336,3.336,0,0,1-.716-1.856.681.681,0,0,1,.2-.553l3.766-4.481a6.91,6.91,0,0,0-2.177.306,11.351,11.351,0,0,0-3,1.574.7.7,0,0,1-.434.148H13.3V50.712Zm34.938-3.144a1.2,1.2,0,1,1-.851.35,1.2,1.2,0,0,1,.851-.35Z" transform="translate(-0.011 -0.001)" fill="#3c58b1" fill-rule="evenodd"/>
</svg>
