<svg xmlns="http://www.w3.org/2000/svg" width="55.53" height="60.66" viewBox="0 0 55.53 60.66">
  <path id="contract-icon_1_" data-name="contract-icon (1)" d="M12.355,15.3,13,22.988a2.5,2.5,0,0,0,.462,1.427.98.98,0,0,0,.775.242h2.48a.939.939,0,0,0,.8-.3,1.983,1.983,0,0,0,.313-1.16V14.73a.408.408,0,0,1,0-.138h0a.638.638,0,0,0-.282-.454,1.939,1.939,0,0,0-1.027-.188c-1.083,0-2.2.03-3.271,0a1.053,1.053,0,0,0-.77.257,1.33,1.33,0,0,0-.134,1.056V15.3ZM49.911,37.323l5.032,3.816a1.443,1.443,0,0,1,.257,2.078L53,45.908l-7.451-5.657,2.2-2.68a1.583,1.583,0,0,1,2.162-.247ZM29.952,57.434a1.7,1.7,0,0,1,1.531.779,1.561,1.561,0,0,1,0,1.665,1.7,1.7,0,0,1-1.531.779H3.9A3.834,3.834,0,0,1,0,56.906V3.752A3.834,3.834,0,0,1,3.9,0h46.6a3.99,3.99,0,0,1,2.771,1.093A3.685,3.685,0,0,1,54.43,3.752V30.9c0,1.757-.786,2.029-1.6,2.083s-1.756-.212-1.756-2.083V3.752a.485.485,0,0,0-.164-.37.56.56,0,0,0-.385-.158H3.9a.582.582,0,0,0-.39.153.547.547,0,0,0-.159.375V56.9a.485.485,0,0,0,.164.37.561.561,0,0,0,.39.158ZM12.108,48.322a1.632,1.632,0,0,1,0-3.263H36.057L33.89,47.744a4.231,4.231,0,0,0-.426.578Zm.652-8.964a1.612,1.612,0,0,1,0-3.223H40.217a1.647,1.647,0,0,1,1.674,1.614.575.575,0,0,1,0,.094,4.081,4.081,0,0,0-.313.494,4.086,4.086,0,0,0-.642.661l-.236.286a1.752,1.752,0,0,1-.483.069ZM44.73,56.141c-1.741.74-3.137,1.106-4.873,1.846-3.7,1.224-3.594,2.049-3.286-1.481l.719-6.012h0l7.158-8.885L51.9,47.255,44.74,56.141Zm-6.162-4.675,4.894,3.712-3.425,1.481c-2.68,1.14-2.6,1.688-2.162-.987l.693-4.2Zm-1.4-37.783a1.073,1.073,0,0,1,.134-.128,2.357,2.357,0,0,1,1.592-.494h3.014a3.07,3.07,0,0,1,1.843.459,1.681,1.681,0,0,1,.616,1.7l-.822,8.16a2.76,2.76,0,0,1-.616,1.693,1.93,1.93,0,0,1-1.6.6H38.686a1.79,1.79,0,0,1-1.2-.35,2.021,2.021,0,0,1-.513-.612H35.944a1.954,1.954,0,0,1-.031,1.116,2.175,2.175,0,0,1-.745,1.017,2.661,2.661,0,0,1-1.16.494,2.367,2.367,0,0,1-1.155-.1,3.15,3.15,0,0,1-1.376.814,2.666,2.666,0,0,1-1.463-.035,2.9,2.9,0,0,1-3.446.671,2.9,2.9,0,0,1-.606.331A2.659,2.659,0,0,1,24.9,29.2a2.929,2.929,0,0,1-1.936-.681A5.445,5.445,0,0,1,21.9,27.11L20.108,24.1H18.886a2.361,2.361,0,0,1-.447.943,2.06,2.06,0,0,1-1.746.736H14.244a2.1,2.1,0,0,1-1.648-.6,3.454,3.454,0,0,1-.76-2.063v-.049L11.189,15.4a2.282,2.282,0,0,1,.39-1.92,2.175,2.175,0,0,1,1.617-.642h3.317a3.038,3.038,0,0,1,1.648.37,1.667,1.667,0,0,1,.709.854H21.4a7.738,7.738,0,0,1,2-.987,5.666,5.666,0,0,1,2.275-.237l.863-.987.051-.049a3.679,3.679,0,0,1,.883-.6,4.705,4.705,0,0,1,1.063-.39,6.932,6.932,0,0,1,1.8-.193,8.489,8.489,0,0,1,1.915.252h0a9.679,9.679,0,0,1,2.917,1.511l.657.434,1.309.844ZM25.741,27.861l-1.207-2.192a.557.557,0,0,1,.236-.765.608.608,0,0,1,.8.232L26.927,27.6a1.993,1.993,0,0,0,1.258.207,1.9,1.9,0,0,0,.929-.533l-1.936-2.917a.551.551,0,0,1,.182-.777.6.6,0,0,1,.809.175l2.054,3.135a1.486,1.486,0,0,0,.919.064,1.922,1.922,0,0,0,.816-.494l-1.849-3.352a.544.544,0,0,1-.015-.588.591.591,0,0,1,.538-.279.585.585,0,0,1,.5.334l1.951,3.529a1.149,1.149,0,0,0,.7.1,1.32,1.32,0,0,0,.611-.262.988.988,0,0,0,.359-.494.952.952,0,0,0-.056-.711.479.479,0,0,1-.046-.168.593.593,0,0,1-.2-.232l-4.354-7.553c-.416-.676-.781-.7-1.125-.494a6.122,6.122,0,0,0-.9.7c-.18.163-.365.321-.544.464l-.775.617a3.433,3.433,0,0,1-1.787.7,2.764,2.764,0,0,1-1.145-.148,2.2,2.2,0,0,1-.94-.642,2.091,2.091,0,0,1-.483-1.19.556.556,0,0,1,.175-.449l2.11-2.414a4.257,4.257,0,0,0-.97.168,7.116,7.116,0,0,0-1.813.913.579.579,0,0,1-.365.123H19v7.829h1.443a.593.593,0,0,1,.513.306l1.951,3.273a4.638,4.638,0,0,0,.827,1.135,1.8,1.8,0,0,0,1.186.395,1.425,1.425,0,0,0,.58-.1,1.664,1.664,0,0,0,.231-.114Zm10.84-4.285.082-8.885L35.2,13.757l-.678-.429A8.665,8.665,0,0,0,31.96,11.98h0a7.348,7.348,0,0,0-1.633-.217,5.8,5.8,0,0,0-1.494.153,3.778,3.778,0,0,0-.811.3,2.782,2.782,0,0,0-.611.41l-.965,1.1a.524.524,0,0,1-.149.168l-2.675,3.036a.927.927,0,0,0,.626.666,1.556,1.556,0,0,0,.637.074,2.246,2.246,0,0,0,1.155-.459l.755-.6c.175-.133.339-.281.513-.425a7.076,7.076,0,0,1,1.089-.839c.929-.538,1.843-.538,2.742.893l4.231,7.335Zm-20.858-2.35a.721.721,0,1,1-.75.721.7.7,0,0,1,.218-.511.76.76,0,0,1,.532-.21Zm24.134,0a.751.751,0,0,1,.7.441.7.7,0,0,1-.159.787.772.772,0,0,1-.818.158.721.721,0,0,1-.464-.666.73.73,0,0,1,.729-.721Z" transform="translate(0 0)" fill="#3c58b1" fill-rule="evenodd"/>
</svg>
