<svg xmlns="http://www.w3.org/2000/svg" width="60.308" height="74.009" viewBox="0 0 60.308 74.009">
  <path id="task-checkmark-icon" d="M45.258,43.914A15.048,15.048,0,1,1,30.211,58.961,15.048,15.048,0,0,1,45.258,43.914ZM11.326,4.673h7.607C19.381,2.036,22.34,0,25.914,0s6.5,2.011,6.98,4.619l7.712.054c.418,0,.777.247.777.56v6.149c0,.305-.347.556-.777.556H11.335c-.418,0-.777-.251-.777-.556V5.233C10.553,4.92,10.9,4.673,11.326,4.673ZM4.6,7.787H7.23v3.528H4.6a1.705,1.705,0,0,0-1.346.736,2.926,2.926,0,0,0-.56,1.768V59.454a2.926,2.926,0,0,0,.56,1.772,1.71,1.71,0,0,0,1.346.74H20.3a23.651,23.651,0,0,0,.811,3.524H4.6a4.134,4.134,0,0,1-3.239-1.776A7.03,7.03,0,0,1,0,59.454V13.819a7.106,7.106,0,0,1,1.35-4.263A4.126,4.126,0,0,1,4.6,7.787Zm44,32.223V14.6a3.022,3.022,0,0,0-.493-1.7l-.054-.071a1.672,1.672,0,0,0-1.312-.715H44.168V8.573h2.566a4,4,0,0,1,3.16,1.772l.075.113A7.231,7.231,0,0,1,51.223,14.6V41.017a11.516,11.516,0,0,0-2.629-1.007ZM18.871,37.427c-1.032,0-1.868-.518-1.868-1.162s.836-1.158,1.868-1.158H39.528c1.016,0,1.852.518,1.852,1.158s-.836,1.162-1.868,1.162Zm-6.562-2.537a1.747,1.747,0,1,1-1.24.512A1.751,1.751,0,0,1,12.309,34.889Zm0,11.369a1.751,1.751,0,1,1-1.751,1.751A1.751,1.751,0,0,1,12.309,46.259Zm6.562,2.855c-1.032,0-1.868-.493-1.868-1.1s.836-1.1,1.868-1.1h11.7a13.459,13.459,0,0,0-2.508,2.207Zm-6.224-25.38a1.63,1.63,0,1,1-1.63,1.63,1.63,1.63,0,0,1,1.63-1.63Zm6.224,2.55c-1.032,0-1.868-.573-1.868-1.275s.836-1.254,1.868-1.254H39.528c1.032,0,1.868.573,1.868,1.254s-.836,1.275-1.868,1.275ZM25.885,2.926a3.219,3.219,0,1,1-2.279.941,3.218,3.218,0,0,1,2.279-.941ZM40.87,56.065l2.817,2.667,5.588-5.647c.518-.531.836-.953,1.488-.293l2.09,2.136c.686.673.648,1.07,0,1.7l-7.979,7.837c-1.354,1.338-1.12,1.421-2.508.046L37.35,59.525a.61.61,0,0,1,.054-.94l2.42-2.508c.368-.38.66-.355,1.037,0Zm4.389-10.45A13.342,13.342,0,1,1,31.916,58.956,13.342,13.342,0,0,1,45.258,45.615Z" transform="translate(0.002)" fill="#3c58b1" fill-rule="evenodd"/>
</svg>
