<?xml version="1.0" encoding="utf-8"?>
<!-- Generator: Adobe Illustrator 26.3.0, SVG Export Plug-In . SVG Version: 6.00 Build 0)  -->
<svg version="1.1" id="Layer_1" xmlns="http://www.w3.org/2000/svg" xmlns:xlink="http://www.w3.org/1999/xlink" x="0px" y="0px"
	 viewBox="0 0 612 792" style="enable-background:new 0 0 612 792;" xml:space="preserve">
<style type="text/css">
	.st0{fill:#3BC1CB;}
	.st1{display:none;fill:#FFFFFF;}
</style>
<g>
	<path class="st0" d="M138.7,414.8c0-20.3,0-40.5,0-60.8c1-4.1,1.8-8.2,3-12.2c4.4-14.9,12.6-27.6,24.2-37.8
		c11.4-10,24.7-16.3,39.7-18.8c9-1.6,18-1.3,27,0c8.5,1.2,17,2.4,25.6,3.5c7.2,0.9,14.5,1.6,21.7,2.6c9,1.3,18,2.8,27,4.1
		c10,1.4,20,2.5,30.1,3.9c9.9,1.4,19.7,3.2,29.6,4.3c13.1,1.4,25.7,3.9,37.4,10.3c8.1,4.5,15.3,9.8,21.2,16.9
		c7.2,8.7,12.6,18.4,15.7,29.3c3,10.6,4.1,21.5,3.1,32.4c-1.2,12.1-4.4,23.6-10.7,34.3c-9.1,15.6-22.1,26.2-38.6,32.9
		c-9.8,3.9-20.2,5.5-30.6,6.7c-11.1,1.4-22.2,3-33.3,4.5c-9.4,1.3-18.8,2.5-28.3,3.8c-12.1,1.7-24.2,3.4-36.3,5.1
		c-9.8,1.3-19.7,2.3-29.4,3.9c-12.2,2.1-24.5,2.7-36.5-0.5c-28.2-7.7-47.5-25.4-57.4-53C141,425.4,140.1,420,138.7,414.8z"/>
	<path class="st1" d="M151,426c1.3,5.2,2.3,10.6,4.1,15.7c9.9,27.7,29.2,45.4,57.4,53c12,3.3,24.2,2.6,36.5,0.5
		c9.7-1.7,19.6-2.6,29.4-3.9c12.1-1.7,24.2-3.4,36.3-5.1c9.4-1.3,18.8-2.5,28.3-3.8c11.1-1.5,22.2-3.2,33.3-4.5
		c10.4-1.3,20.8-2.8,30.6-6.7c16.5-6.6,29.5-17.3,38.6-32.9c6.3-10.7,9.5-22.3,10.7-34.3c1-10.9-0.1-21.8-3.1-32.4
		c-3.1-11-8.5-20.6-15.7-29.3c-5.9-7.1-13.2-12.5-21.2-16.9c-11.7-6.4-24.3-8.9-37.4-10.3c-9.9-1.1-19.7-2.9-29.6-4.3
		c-10-1.4-20-2.5-30.1-3.9c-9-1.3-18-2.8-27-4.1c-7.2-1-14.5-1.7-21.7-2.6c-8.5-1.1-17-2.3-25.6-3.5c-9-1.3-17.9-1.5-27,0
		c-15,2.6-28.3,8.9-39.7,18.8c-11.6,10.2-19.8,22.8-24.2,37.8c-1.2,4-2,8.1-3,12.2c0-27.2,0-54.5,0-81.8c106.5,0,213,0,319.5,0
		c0,75,0,150,0,225c-106.5,0-213,0-319.5,0C151,481,151,453.5,151,426z"/>
</g>
</svg>
